<?xml version="1.0" encoding="utf-8"?>
<!-- Generator: Adobe Illustrator 23.0.3, SVG Export Plug-In . SVG Version: 6.00 Build 0)  -->
<svg version="1.1" id="Capa_1" xmlns="http://www.w3.org/2000/svg" xmlns:xlink="http://www.w3.org/1999/xlink" x="0px" y="0px"
	 viewBox="0 0 1920 1080" style="enable-background:new 0 0 1920 1080;" xml:space="preserve">
<style type="text/css">
	.st0{display:none;}
	.st1{display:inline;}
	.st2{fill:#FFFFFF;}
</style>
<g class="st0">
	<text transform="matrix(1 0 0 1 -18.1143 2059.3367)" class="st1" style="font-family:'RivieraRegular'; font-size:550px;">SAFITY</text>
	<g class="st1">
		<path d="M-368.84,1054.66c-4.15,0-8.09,0-12.21,0c0-8.9,0-17.79,0-26.82c-0.6,0-1.02,0-1.45,0c-4.36,0-8.72-0.03-13.08,0.02
			c-0.97,0.01-1.32-0.29-1.45-1.22c-0.21-1.54-0.54-3.06-0.84-4.69c3.37,0,6.64,0,10.01,0c0-2.71,0-5.32,0-8.08
			c-0.42-0.03-0.88-0.09-1.34-0.09c-3.08-0.01-6.16-0.02-9.24,0.01c-0.74,0.01-1.04-0.2-1.16-0.97c-0.33-2.13-0.77-4.24-1.2-6.51
			c3.71,0,7.33,0,11.05,0c0-2.77,0-5.42,0-8.18c-4.18,0-8.32,0-12.57,0c-0.55-2.98-1.09-5.86-1.66-8.92c0.59,0,1.02,0,1.45,0
			c3.56,0,7.12-0.03,10.68,0.01c0.82,0.01,1.14-0.22,1.12-1.07c-0.05-2-0.06-4,0-5.99c0.03-0.94-0.34-1.13-1.19-1.12
			c-3.76,0.04-7.52,0.02-11.28,0.03c-0.67,0-1.34,0-2.11,0c0-10.02,0-19.91,0-29.92c6.86,0,13.72,0,20.72,0c0,3.51,0,7.05,0,10.68
			c6.4,0,12.65,0,19.06,0c0-3.54,0-7.08,0-10.7c7.01,0,13.86,0,20.8,0c0,9.93,0,19.82,0,29.9c-4.8,0-9.61,0-14.49,0
			c0,2.79,0,5.41,0,8.15c4.36,0,8.66,0,13.15,0c-0.46,2.53-0.99,4.89-1.3,7.29c-0.18,1.37-0.73,1.71-2.05,1.67
			c-3.32-0.1-6.64-0.01-9.96-0.05c-0.84-0.01-1.11,0.25-1.09,1.09c0.05,2.31,0.02,4.62,0.02,7.07c3.8,0,7.46,0,11.2,0
			c-0.42,2.36-0.83,4.55-1.2,6.76c-0.13,0.78-0.64,0.77-1.23,0.77c-3.12-0.01-6.24,0.03-9.36-0.02c-0.98-0.02-1.33,0.27-1.3,1.28
			c0.07,2.23,0.02,4.46,0.02,6.86c3.4,0,6.69,0,10.16,0c-0.36,1.95-0.64,3.72-1.05,5.46c-0.06,0.24-0.75,0.46-1.14,0.46
			c-4.36,0.03-8.72,0.02-13.08,0.02c-0.43,0-0.87,0-1.42,0C-368.84,1036.8-368.84,1045.65-368.84,1054.66z"/>
		<path d="M-367.26,959.7c-5.24,0-10.26,0-15.43,0c0-5.4,0-10.73,0-16.13c-0.65,0-1.15,0-1.77,0c-0.04,0.87-0.08,1.72-0.13,2.65
			c-4.41,0-8.75,0-13.21,0c0-10.8,0-21.6,0-32.47c1.53,0,3.02,0,4.63,0c0,4.44,0,8.82,0,13.31c1.44,0,2.77,0,4.26,0
			c0-4.44,0-8.85,0-13.32c1.3,0,2.44,0,3.7,0c0,4.43,0,8.81,0,13.31c1.45,0,2.78,0,4.28,0c0-4.38,0-8.79,0-13.28
			c1.31,0,2.45,0,3.72,0c0,4.38,0,8.8,0,13.31c1.46,0,2.8,0,4.29,0c0-4.42,0-8.83,0-13.32c1.3,0,2.44,0,3.74,0
			c0,4.41,0,8.82,0,13.32c1.45,0,2.75,0,4.21,0c0-4.39,0-8.81,0-13.31c1.33,0,2.5,0,3.78,0c0,4.42,0,8.8,0,13.29
			c1.45,0,2.78,0,4.28,0c0-4.4,0-8.81,0-13.3c1.66,0,3.16,0,4.73,0c0,10.82,0,21.59,0,32.45c-4.42,0-8.79,0-13.25,0
			c-0.04-0.85-0.08-1.67-0.13-2.55c-0.59,0-1.09,0-1.72,0C-367.26,948.98-367.26,954.29-367.26,959.7z"/>
		<path d="M-433.05,1011.21c-19.93,0-39.79,0-59.74,0c0-19.89,0-39.78,0-59.76c19.89,0,39.78,0,59.74,0
			C-433.05,971.35-433.05,991.2-433.05,1011.21z M-437.79,981.32c0-7.92-0.02-15.84,0.02-23.76c0.01-1.11-0.32-1.41-1.42-1.41
			c-15.84,0.03-31.67,0.03-47.51,0c-1.11,0-1.41,0.33-1.41,1.42c0.03,15.84,0.03,31.67,0,47.51c0,1.13,0.35,1.4,1.43,1.4
			c15.84-0.03,31.67-0.03,47.51,0c1.13,0,1.4-0.35,1.4-1.43C-437.81,997.15-437.79,989.23-437.79,981.32z"/>
		<path d="M-397.84,912.08c0-1.41,0-2.72,0-4.09c15.24,0,30.41,0,45.66,0c0,1.36,0,2.69,0,4.09
			C-367.39,912.08-382.55,912.08-397.84,912.08z"/>
		<path d="M-441.21,961.5c0,0.5,0,0.92,0,1.35c-0.02,6.83-0.04,13.67-0.05,20.5c0,1.19,0.02,2.39,0.07,3.58
			c0.03,0.71-0.22,1.02-0.96,1c-1.6-0.04-3.19-0.01-4.93-0.01c0,2.17,0,4.31,0,6.6c-1.84,0-3.55,0.06-5.25-0.02
			c-1.02-0.05-1.31,0.32-1.27,1.3c0.07,1.75,0.02,3.5,0.02,5.32c-6.26,0-12.4,0-18.69,0c0-1.83-0.05-3.61,0.02-5.4
			c0.04-0.97-0.3-1.25-1.24-1.22c-1.71,0.06-3.42,0.02-5.26,0.02c0-2.24,0-4.34,0-6.6c-2.03,0-3.92,0-5.84,0c0-8.9,0-17.64,0-26.43
			C-470.14,961.5-455.8,961.5-441.21,961.5z M-464.84,964.59c0,2.4,0,4.67,0,6.94c0,0.85,0.66,0.77,1.1,0.65
			c0.9-0.24,2.44,0.8,2.63-0.61c0.31-2.26,0.08-4.59,0.08-6.98C-462.33,964.59-463.5,964.59-464.84,964.59z M-478.7,972.08
			c0-2.55,0-5.01,0-7.46c-1.27,0-2.44,0-3.7,0c0,1.58,0,3.06,0,4.53c0,3.27,0,3.27,3.29,3.04
			C-479,972.18-478.89,972.13-478.7,972.08z M-472.75,972.2c0-2.45,0.21-4.78-0.08-7.05c-0.17-1.36-1.66-0.41-2.52-0.61
			c-0.48-0.11-1.2-0.24-1.2,0.69c0,2.08-0.02,4.15,0.03,6.23c0.01,0.25,0.41,0.69,0.66,0.71
			C-474.88,972.25-473.89,972.2-472.75,972.2z M-447.16,964.52c0,2.62,0,5.1,0,7.68c1.05,0,2.01,0.05,2.96-0.03
			c0.26-0.02,0.7-0.43,0.7-0.66c0.05-2.11,0.05-4.23,0-6.35c-0.01-0.22-0.4-0.6-0.63-0.61
			C-445.11,964.48-446.1,964.52-447.16,964.52z M-449.4,972.14c0-2.59,0-5.04,0-7.53c-1.26,0-2.43,0-3.62,0c0,2.55,0,5.01,0,7.53
			C-451.79,972.14-450.65,972.14-449.4,972.14z M-466.98,964.6c-1.3,0-2.44,0-3.57,0c0,2.57,0,5.05,0,7.52c1.25,0,2.39,0,3.57,0
			C-466.98,969.58-466.98,967.12-466.98,964.6z M-455.23,964.62c-1.3,0-2.47,0-3.62,0c0,2.56,0,5.01,0,7.48c1.26,0,2.43,0,3.62,0
			C-455.23,969.56-455.23,967.14-455.23,964.62z"/>
	</g>
	<g class="st1">
		<path d="M-822.32,929.14c1.85-4.16,3.61-8.12,5.45-12.25c8.93,3.97,17.85,7.94,26.91,11.97c0.27-0.6,0.46-1.03,0.65-1.45
			c1.95-4.37,3.92-8.73,5.81-13.13c0.42-0.98,0.88-1.2,1.87-0.91c1.64,0.48,3.31,0.82,5.09,1.25c-1.5,3.38-2.96,6.66-4.47,10.05
			c2.71,1.21,5.34,2.37,8.11,3.6c0.22-0.41,0.49-0.84,0.69-1.3c1.38-3.09,2.77-6.17,4.11-9.28c0.32-0.74,0.66-0.95,1.49-0.73
			c2.28,0.62,4.6,1.12,7.06,1.7c-1.66,3.73-3.27,7.35-4.93,11.09c2.78,1.24,5.43,2.42,8.21,3.65c1.86-4.19,3.71-8.35,5.61-12.62
			c3.24,0.77,6.37,1.52,9.69,2.32c-0.26,0.59-0.46,1.02-0.65,1.46c-1.59,3.57-3.15,7.16-4.78,10.71c-0.38,0.82-0.29,1.24,0.58,1.6
			c2.03,0.84,4.04,1.72,6.01,2.68c0.93,0.45,1.29,0.17,1.66-0.7c1.64-3.79,3.33-7.55,5.01-11.33c0.3-0.67,0.6-1.35,0.94-2.11
			c10.05,4.47,19.98,8.88,30.02,13.35c-3.06,6.89-6.12,13.76-9.25,20.79c-3.53-1.57-7.07-3.14-10.72-4.76
			c-2.86,6.42-5.65,12.7-8.5,19.13c3.56,1.58,7.1,3.16,10.73,4.77c-3.13,7.03-6.18,13.91-9.28,20.87c-9.96-4.43-19.89-8.84-30-13.34
			c2.14-4.82,4.29-9.64,6.46-14.54c-2.8-1.25-5.43-2.41-8.18-3.64c-1.95,4.38-3.87,8.69-5.87,13.19c-2.33-1.59-4.47-3.18-6.73-4.55
			c-1.3-0.79-1.39-1.5-0.76-2.81c1.58-3.28,2.97-6.66,4.49-9.97c0.38-0.84,0.24-1.23-0.61-1.58c-2.34-0.98-4.64-2.04-7.1-3.14
			c-1.7,3.81-3.33,7.48-5,11.24c-2.18-1.48-4.2-2.87-6.24-4.22c-0.72-0.48-0.49-0.98-0.22-1.57c1.4-3.13,2.76-6.27,4.2-9.38
			c0.45-0.97,0.33-1.46-0.7-1.88c-2.27-0.93-4.49-1.97-6.9-3.04c-1.52,3.42-2.99,6.72-4.53,10.19c-1.8-1.23-3.45-2.3-5.01-3.49
			c-0.21-0.16-0.13-0.95,0.05-1.35c1.91-4.39,3.87-8.76,5.81-13.13c0.19-0.43,0.39-0.87,0.63-1.42
			C-804.39,937.11-813.28,933.16-822.32,929.14z"/>
		<path d="M-727.73,973.1c2.34-5.25,4.58-10.3,6.88-15.48c5.42,2.41,10.77,4.79,16.19,7.2c0.29-0.65,0.51-1.15,0.79-1.78
			c-0.85-0.43-1.69-0.85-2.6-1.31c1.97-4.43,3.91-8.79,5.9-13.26c10.83,4.82,21.68,9.64,32.59,14.49c-0.68,1.53-1.35,3.03-2.07,4.65
			c-4.46-1.98-8.86-3.94-13.35-5.94c-0.64,1.44-1.23,2.78-1.9,4.27c4.45,1.98,8.88,3.95,13.37,5.94c-0.58,1.31-1.09,2.45-1.65,3.72
			c-4.45-1.98-8.84-3.93-13.35-5.94c-0.64,1.45-1.24,2.79-1.91,4.29c4.39,1.95,8.82,3.92,13.33,5.93c-0.58,1.31-1.09,2.46-1.66,3.73
			c-4.4-1.95-8.83-3.93-13.35-5.94c-0.65,1.47-1.25,2.81-1.92,4.31c4.44,1.97,8.86,3.94,13.36,5.94c-0.58,1.3-1.09,2.45-1.67,3.76
			c-4.43-1.97-8.85-3.94-13.37-5.94c-0.65,1.46-1.23,2.76-1.88,4.23c4.41,1.96,8.84,3.93,13.35,5.94c-0.59,1.33-1.11,2.51-1.69,3.8
			c-4.43-1.97-8.83-3.93-13.33-5.93c-0.65,1.45-1.24,2.79-1.91,4.29c4.41,1.96,8.84,3.93,13.35,5.93c-0.74,1.67-1.41,3.17-2.11,4.74
			c-10.86-4.83-21.67-9.63-32.57-14.48c1.97-4.43,3.92-8.82,5.91-13.29c0.87,0.34,1.71,0.66,2.61,1.01
			c0.26-0.59,0.49-1.09,0.77-1.73C-716.98,977.88-722.3,975.51-727.73,973.1z"/>
		<path d="M-666.31,963.66c1.42,0.63,2.73,1.21,4.1,1.82c-6.8,15.29-13.57,30.51-20.37,45.82c-1.36-0.61-2.7-1.2-4.1-1.82
			C-679.89,994.22-673.13,979-666.31,963.66z"/>
	</g>
	<g class="st1">
		<path class="st2" d="M1203.73-240.91c0.38,0.05,0.75,0.09,1.13,0.14c0.18,0.78,0.44,1.56,0.52,2.35c1.35,14.6,2.67,29.2,4,43.81
			c0.74,8.13,1.37,16.27,2.32,24.37c0.15,1.27,1.79,2.37,2.74,3.55c0.9-1.2,2.02-2.3,2.63-3.63c0.46-0.99,0.28-2.29,0.36-3.45
			c2.81-42.73,5.62-85.46,8.44-128.19c0.1-1.52,0.36-3.03,0.54-4.54c1.33,1.81,1.55,3.55,1.68,5.29c1.54,20.6,3,41.22,4.71,61.81
			c0.2,2.47,1.72,4.82,2.63,7.23c1.23-2.32,2.91-4.52,3.6-7c1.67-5.95,2.89-12.04,4.29-18.07c0.53,0.02,1.05,0.03,1.58,0.05
			c1.82,7.69,3.77,15.35,5.41,23.07c0.71,3.37,2.36,4.8,5.78,4.78c12.5-0.08,25,0.07,37.5-0.11c1.59-0.02,3.15-1.55,4.73-2.37
			c-1.62-0.73-3.24-2.06-4.88-2.09c-11-0.2-22-0.25-33-0.05c-3.85,0.07-5.67-1.16-6.49-5.02c-2.11-9.94-4.52-19.82-7.01-29.67
			c-0.44-1.73-1.83-3.22-2.78-4.82c-1.09,1.63-2.64,3.12-3.19,4.92c-1.34,4.44-2.22,9.02-3.28,13.55c-0.43-0.08-0.86-0.15-1.29-0.23
			c-0.16-0.93-0.39-1.86-0.46-2.8c-1.34-17.78-2.66-35.56-3.98-53.34c-0.97-13.13-1.86-26.26-2.98-39.37
			c-0.11-1.27-1.64-2.42-2.51-3.63c-0.74,1.17-1.61,2.29-2.18,3.54c-0.32,0.71-0.14,1.64-0.19,2.47
			c-2.72,42.57-5.43,85.14-8.17,127.72c-0.36,5.64-0.85,11.27-1.37,18.12c-0.85-1.69-1.21-2.11-1.25-2.55
			c-0.85-8.45-1.7-16.91-2.49-25.36c-0.7-7.46-1.21-14.95-2.09-22.39c-0.18-1.5-1.61-2.86-2.46-4.29c-1.03,1.13-2.35,2.11-3.03,3.43
			c-1.06,2.06-1.68,4.34-2.49,6.53c-4.88,13.13-4.88,13.18-19.01,13.12c-11.67-0.05-9.27,1.15-11.95-9.3
			c-1.78-6.94-3.35-13.93-5.24-20.84c-0.37-1.37-1.77-2.46-2.69-3.67c-0.84,1.42-1.71,2.81-2.48,4.26
			c-0.22,0.41-0.13,0.98-0.16,1.48c-0.74,12.14-1.44,24.29-2.23,36.42c-0.32,4.97-0.81,9.94-1.23,14.91c-0.42,0-0.84,0.01-1.26,0.01
			c-0.44-2.57-0.92-5.13-1.31-7.71c-1.21-7.9-2.31-15.83-3.67-23.71c-0.28-1.61-1.53-3.05-2.33-4.57c-1.24,1.35-3.03,2.49-3.62,4.08
			c-3.19,8.59-1.13,7.85-11.58,7.88c-3.5,0.01-7,0.06-10.5-0.01c-2.03-0.04-4.05-0.27-7.38-0.5c2.31-2.42,3.64-3.83,5-5.23
			c8.61-8.83,17.44-17.5,22.91-28.8c7.59-15.69,2.94-35.24-10.73-45.44c-14.96-11.17-31.39-10.37-45.38,2.64
			c-3.15,2.93-4.91,2.46-7.8-0.05c-6.44-5.6-13.74-9.28-22.66-8.93c-27.41,1.1-44.76,31.67-30.3,54.95
			c6.05,9.73,15.06,17.62,22.75,26.33c1.25,1.42,2.63,2.72,5.06,5.21c-12.02,0-22.44,0.1-32.86-0.16c-1-0.02-2.36-2.12-2.83-3.5
			c-1.62-4.72-2.79-9.6-4.43-14.32c-0.46-1.33-1.93-2.31-2.94-3.44c-0.85,1.29-2.18,2.48-2.48,3.88c-1.59,7.5-2.9,15.05-4.37,22.57
			c-0.22,1.12-0.76,2.18-1.15,3.27c-1.22-2.28-1.68-4.37-1.92-6.49c-2.32-20.7-4.54-41.4-6.97-62.08c-0.26-2.18-1.74-4.22-2.66-6.32
			c-0.95,2.07-2.47,4.06-2.75,6.22c-2.41,18.67-4.68,37.36-6.79,56.07c-0.42,3.73-1.78,5.19-5.62,5.06
			c-6.99-0.24-14.01-0.26-20.99,0.03c-4.06,0.17-5.97-1.1-6.78-5.27c-1.65-8.5-3.78-16.91-5.92-25.3c-0.4-1.56-1.76-2.87-2.67-4.29
			c-1.05,1.49-2.43,2.84-3.07,4.49c-0.84,2.15-1.07,4.53-1.6,6.8c-0.8,3.44-1.64,6.87-2.46,10.31c-0.43-0.04-0.85-0.08-1.28-0.12
			c-0.21-1.55-0.5-3.1-0.62-4.66c-1.9-25.59-3.72-51.18-5.76-76.76c-0.2-2.46-1.7-4.81-2.59-7.21c-0.88,2.44-2.38,4.83-2.55,7.31
			c-3.03,44.89-5.9,89.78-8.82,134.68c-0.12,1.86-0.46,3.7-0.7,5.56c-0.41-0.03-0.82-0.06-1.24-0.09
			c-0.81-8.56-1.66-17.12-2.44-25.69c-1.03-11.45-1.94-22.91-3.09-34.35c-0.14-1.43-1.42-2.75-2.17-4.12
			c-1.08,1.09-2.56,2-3.16,3.31c-1.52,3.32-2.96,6.75-3.86,10.28c-1.03,4.04-3.36,5.09-7.27,5.01c-9.66-0.19-19.33-0.1-29,0.12
			c-1.49,0.03-2.96,1.31-4.44,2.01c1.53,0.86,3.04,2.42,4.6,2.46c8.16,0.22,16.33,0.16,24.49-0.01c6.29-0.13,13.75,2.42,16.58-7.25
			c0.92,3.97,1.34,7.23,1.64,10.5c1.62,17.75,3.21,35.51,4.81,53.27c0.26,2.89,0.43,6.17,4.23,6.25c3.87,0.08,4-3.29,4.4-6.11
			c0.09-0.66,0.1-1.33,0.15-1.99c2.21-35.09,4.4-70.18,6.64-105.27c0.19-3,0.61-5.99,0.93-8.99c1.12,2,1.48,3.94,1.63,5.91
			c1.12,14.62,2.16,29.24,3.31,43.86c0.22,2.83-0.55,6.72,3.67,7.11c4.21,0.39,4.17-3.53,4.92-6.3c0.78-2.89,1.3-5.86,2.02-8.77
			c0.44-1.76,1.04-3.47,1.57-5.2c0.42,0.04,0.85,0.09,1.27,0.13c1.3,5.46,2.81,10.88,3.82,16.4c0.86,4.69,2.95,6.86,8.03,6.67
			c8.99-0.33,18-0.26,26.99-0.01c4.54,0.13,6.19-1.9,6.64-6.1c1.14-10.6,2.49-21.18,3.79-31.77c0.19-1.54,0.54-3.06,0.81-4.59
			c1.3,1.59,1.65,3.14,1.83,4.7c1.86,16.39,3.62,32.79,5.59,49.17c0.34,2.87-0.75,7.3,3.69,7.62c4.97,0.35,4-4.5,4.68-7.4
			c1.41-6,2.32-12.11,3.52-18.15c0.32-1.62,0.93-3.18,1.8-6.08c1.12,2.87,1.93,4.19,2.14,5.6c0.78,5.2,3.81,6.55,8.78,6.42
			c11.32-0.3,22.66,0.01,33.99-0.16c1.54-0.02,3.92-1.01,4.36-2.16c0.45-1.15-0.63-3.46-1.73-4.55c-4.02-3.99-8.7-7.35-12.44-11.56
			c-6.27-7.06-13.06-13.99-17.73-22.07c-7.51-12.99-2.86-30.25,9.12-39.46c12.68-9.74,26.04-9.14,38.67,1.74
			c1.14,0.98,2.09,2.51,3.38,2.88c1.8,0.5,3.99,0.58,5.73,0c1.42-0.48,2.45-2.17,3.62-3.35c9.49-9.56,20.48-12.15,32.87-6.55
			c12.39,5.61,18.79,15.58,19.49,29.05c0.6,11.54-5.59,20.39-12.67,28.5c-6.34,7.27-13.41,13.9-20.03,20.95
			c-0.99,1.06-2.02,3.1-1.63,4.15c0.4,1.07,2.52,1.95,3.96,2.07c3.47,0.3,6.99,0.17,10.49,0.12c8.3-0.13,16.59-0.33,25.34-0.51
			c0.1,0.52,0.45,2.13,0.7,3.76c1.89,12.18,3.67,24.39,5.74,36.54c0.27,1.58,2.05,2.91,3.13,4.35c1.09-1.57,2.28-3.09,3.22-4.74
			c0.37-0.66,0.21-1.63,0.27-2.46c0.86-13.97,1.68-27.95,2.57-41.91c0.21-3.22,0.63-6.43,0.96-9.64c0.43-0.04,0.86-0.08,1.29-0.11
			c0.95,3.76,1.99,7.5,2.84,11.29c0.64,2.89,2.21,4.23,5.23,4.2c6.33-0.07,12.7-0.37,18.99,0.16c5.86,0.49,9.19-1.46,10.33-7.29
			C1202.09-238.05,1203.06-239.45,1203.73-240.91z"/>
		<path class="st2" d="M1203.73-240.91c-0.67,1.46-1.64,2.86-1.94,4.4c-1.13,5.83-4.47,7.78-10.33,7.29
			c-6.29-0.53-12.66-0.23-18.99-0.16c-3.02,0.03-4.59-1.31-5.23-4.2c-0.84-3.79-1.88-7.53-2.84-11.29
			c-0.43,0.04-0.86,0.08-1.29,0.11c-0.32,3.21-0.75,6.42-0.96,9.64c-0.89,13.97-1.72,27.94-2.57,41.91
			c-0.05,0.83,0.11,1.8-0.27,2.46c-0.94,1.66-2.13,3.17-3.22,4.74c-1.08-1.44-2.85-2.77-3.13-4.35
			c-2.08-12.15-3.85-24.36-5.74-36.54c-0.25-1.63-0.6-3.24-0.7-3.76c-8.75,0.18-17.05,0.37-25.34,0.51
			c-3.5,0.06-7.02,0.19-10.49-0.12c-1.44-0.12-3.55-1-3.96-2.07c-0.4-1.05,0.63-3.1,1.63-4.15c6.61-7.04,13.68-13.68,20.03-20.95
			c7.08-8.11,13.27-16.96,12.67-28.5c-0.7-13.47-7.1-23.45-19.49-29.05c-12.39-5.61-23.38-3.01-32.87,6.55
			c-1.17,1.18-2.2,2.88-3.62,3.35c-1.74,0.58-3.93,0.5-5.73,0c-1.29-0.36-2.25-1.9-3.38-2.88c-12.63-10.88-25.99-11.48-38.67-1.74
			c-11.99,9.21-16.63,26.47-9.12,39.46c4.67,8.08,11.46,15.01,17.73,22.07c3.74,4.21,8.42,7.57,12.44,11.56
			c1.1,1.1,2.18,3.4,1.73,4.55c-0.45,1.14-2.82,2.14-4.36,2.16c-11.33,0.17-22.67-0.14-33.99,0.16c-4.97,0.13-8-1.23-8.78-6.42
			c-0.21-1.41-1.02-2.74-2.14-5.6c-0.87,2.91-1.48,4.47-1.8,6.08c-1.2,6.05-2.11,12.16-3.52,18.15c-0.68,2.9,0.29,7.76-4.68,7.4
			c-4.44-0.32-3.35-4.75-3.69-7.62c-1.97-16.38-3.73-32.78-5.59-49.17c-0.18-1.57-0.52-3.11-1.83-4.7
			c-0.27,1.53-0.62,3.05-0.81,4.59c-1.3,10.59-2.65,21.17-3.79,31.77c-0.45,4.2-2.1,6.23-6.64,6.1c-8.99-0.25-18.01-0.32-26.99,0.01
			c-5.08,0.19-7.17-1.98-8.03-6.67c-1.01-5.51-2.53-10.94-3.82-16.4c-0.42-0.04-0.85-0.09-1.27-0.13c-0.53,1.73-1.14,3.45-1.57,5.2
			c-0.72,2.91-1.24,5.87-2.02,8.77c-0.75,2.77-0.7,6.69-4.92,6.3c-4.22-0.39-3.45-4.28-3.67-7.11c-1.15-14.62-2.19-29.24-3.31-43.86
			c-0.15-1.96-0.51-3.91-1.63-5.91c-0.31,3-0.74,5.99-0.93,8.99c-2.23,35.09-4.43,70.18-6.64,105.27c-0.04,0.67-0.05,1.34-0.15,1.99
			c-0.4,2.82-0.52,6.19-4.4,6.11c-3.8-0.08-3.97-3.36-4.23-6.25c-1.59-17.76-3.19-35.51-4.81-53.27c-0.3-3.27-0.72-6.52-1.64-10.5
			c-2.83,9.67-10.29,7.11-16.58,7.25c-8.16,0.17-16.34,0.23-24.49,0.01c-1.55-0.04-3.07-1.6-4.6-2.46c1.48-0.7,2.95-1.98,4.44-2.01
			c9.66-0.22,19.33-0.32,29-0.12c3.91,0.08,6.23-0.97,7.27-5.01c0.9-3.53,2.34-6.96,3.86-10.28c0.6-1.31,2.08-2.22,3.16-3.31
			c0.75,1.37,2.03,2.69,2.17,4.12c1.15,11.44,2.06,22.9,3.09,34.35c0.77,8.57,1.62,17.13,2.44,25.69c0.41,0.03,0.82,0.06,1.24,0.09
			c0.24-1.85,0.58-3.7,0.7-5.56c2.92-44.89,5.79-89.79,8.82-134.68c0.17-2.48,1.67-4.88,2.55-7.31c0.9,2.4,2.4,4.76,2.59,7.21
			c2.04,25.58,3.86,51.17,5.76,76.76c0.12,1.56,0.41,3.1,0.62,4.66c0.43,0.04,0.85,0.08,1.28,0.12c0.82-3.44,1.65-6.87,2.46-10.31
			c0.53-2.27,0.77-4.65,1.6-6.8c0.64-1.65,2.02-3,3.07-4.49c0.91,1.42,2.27,2.74,2.67,4.29c2.14,8.39,4.26,16.8,5.92,25.3
			c0.81,4.17,2.72,5.44,6.78,5.27c6.99-0.29,14-0.27,20.99-0.03c3.84,0.13,5.2-1.34,5.62-5.06c2.11-18.71,4.38-37.4,6.79-56.07
			c0.28-2.15,1.8-4.15,2.75-6.22c0.92,2.1,2.4,4.14,2.66,6.32c2.44,20.68,4.66,41.39,6.97,62.08c0.24,2.12,0.7,4.22,1.92,6.49
			c0.39-1.09,0.93-2.15,1.15-3.27c1.47-7.52,2.78-15.08,4.37-22.57c0.3-1.41,1.62-2.59,2.48-3.88c1.01,1.14,2.48,2.11,2.94,3.44
			c1.64,4.72,2.81,9.6,4.43,14.32c0.47,1.38,1.83,3.47,2.83,3.5c10.41,0.26,20.84,0.16,32.86,0.16c-2.43-2.49-3.81-3.8-5.06-5.21
			c-7.69-8.71-16.71-16.6-22.75-26.33c-14.46-23.29,2.89-53.85,30.3-54.95c8.92-0.36,16.22,3.33,22.66,8.93
			c2.89,2.51,4.65,2.98,7.8,0.05c13.99-13.02,30.41-13.81,45.38-2.64c13.67,10.2,18.32,29.75,10.73,45.44
			c-5.47,11.31-14.3,19.97-22.91,28.8c-1.36,1.39-2.69,2.81-5,5.23c3.33,0.23,5.35,0.46,7.38,0.5c3.5,0.07,7,0.02,10.5,0.01
			c10.46-0.03,8.39,0.7,11.58-7.88c0.59-1.59,2.38-2.73,3.62-4.08c0.8,1.52,2.06,2.96,2.33,4.57c1.36,7.88,2.46,15.8,3.67,23.71
			c0.4,2.58,0.87,5.14,1.31,7.71c0.42,0,0.84-0.01,1.26-0.01c0.41-4.97,0.91-9.93,1.23-14.91c0.78-12.14,1.49-24.28,2.23-36.42
			c0.03-0.5-0.06-1.07,0.16-1.48c0.77-1.45,1.65-2.85,2.48-4.26c0.92,1.22,2.31,2.31,2.69,3.67c1.89,6.91,3.46,13.9,5.24,20.84
			c2.68,10.45,0.28,9.24,11.95,9.3c14.13,0.06,14.13,0.01,19.01-13.12c0.81-2.19,1.43-4.47,2.49-6.53c0.68-1.31,2-2.3,3.03-3.43
			c0.85,1.43,2.28,2.78,2.46,4.29c0.87,7.44,1.39,14.93,2.09,22.39c0.79,8.46,1.63,16.91,2.49,25.36c0.05,0.45,0.41,0.86,1.25,2.55
			c0.52-6.85,1.01-12.49,1.37-18.12c2.74-42.57,5.45-85.14,8.17-127.72c0.05-0.83-0.13-1.76,0.19-2.47
			c0.57-1.25,1.43-2.37,2.18-3.54c0.87,1.21,2.4,2.35,2.51,3.63c1.13,13.11,2.01,26.25,2.98,39.37c1.31,17.78,2.64,35.56,3.98,53.34
			c0.07,0.94,0.31,1.86,0.46,2.8c0.43,0.08,0.86,0.15,1.29,0.23c1.06-4.53,1.94-9.11,3.28-13.55c0.54-1.8,2.09-3.29,3.19-4.92
			c0.95,1.6,2.34,3.09,2.78,4.82c2.49,9.85,4.9,19.73,7.01,29.67c0.82,3.86,2.64,5.1,6.49,5.02c11-0.2,22-0.15,33,0.05
			c1.64,0.03,3.25,1.36,4.88,2.09c-1.58,0.83-3.14,2.35-4.73,2.37c-12.5,0.19-25,0.04-37.5,0.11c-3.43,0.02-5.07-1.41-5.78-4.78
			c-1.64-7.73-3.58-15.39-5.41-23.07c-0.53-0.02-1.05-0.03-1.58-0.05c-1.4,6.03-2.61,12.12-4.29,18.07c-0.7,2.47-2.37,4.67-3.6,7
			c-0.91-2.41-2.43-4.77-2.63-7.23c-1.7-20.59-3.16-41.2-4.71-61.81c-0.13-1.75-0.35-3.48-1.68-5.29c-0.18,1.51-0.44,3.02-0.54,4.54
			c-2.82,42.73-5.63,85.46-8.44,128.19c-0.08,1.16,0.1,2.45-0.36,3.45c-0.61,1.33-1.73,2.43-2.63,3.63
			c-0.95-1.18-2.59-2.28-2.74-3.55c-0.96-8.1-1.58-16.24-2.32-24.37c-1.33-14.6-2.66-29.21-4-43.81c-0.07-0.79-0.34-1.57-0.52-2.35
			C1204.48-240.82,1204.1-240.87,1203.73-240.91z"/>
	</g>
</g>
<g>
	<g>
		<path d="M360.38,694.91c-11.59-7.2-24.28-12.84-38.06-16.91c-13.79-4.07-26.47-8.3-38.06-12.69c-11.59-4.38-21.31-9.55-29.13-15.5
			c-7.83-5.95-11.75-14.57-11.75-25.84c0-7.51,1.56-14.01,4.69-19.5c3.13-5.48,7.29-9.94,12.45-13.4
			c5.17-3.44,10.96-5.94,17.39-7.51c6.42-1.57,13.07-2.35,19.97-2.35c11.59,0,22.63,2.11,33.13,6.34c3,1.21,5.82,2.62,8.47,4.22
			c5.29,3.2,11.25,4.65,17.03,4.36c-0.27,0.58-0.53,1.15-0.81,1.73c-0.63,1.31-0.54,2.02,0.76,2.81c2.26,1.38,4.4,2.96,6.73,4.55
			c1.92-4.33,3.77-8.48,5.64-12.69c0.19-0.11,0.39-0.23,0.58-0.34c2.62,1.17,5.14,2.29,7.82,3.48c-2.18,4.89-4.32,9.72-6.46,14.54
			c10.11,4.5,20.04,8.91,30,13.34c3.1-6.96,6.15-13.84,9.28-20.87c-3.63-1.61-7.18-3.19-10.73-4.77c2.86-6.43,5.65-12.7,8.5-19.13
			c3.64,1.62,7.19,3.2,10.72,4.76c3.13-7.03,6.18-13.91,9.25-20.79c-10.04-4.46-19.97-8.88-30.02-13.35
			c-0.34,0.77-0.64,1.44-0.94,2.11c-1.67,3.77-3.37,7.54-5.01,11.33c-0.37,0.86-0.73,1.15-1.66,0.7c-1.97-0.96-3.99-1.83-6.01-2.68
			c-0.13-0.06-0.24-0.11-0.34-0.17c-0.09-0.44-0.18-0.87-0.29-1.31c0.02-0.04,0.03-0.08,0.05-0.12c1.63-3.55,3.19-7.14,4.78-10.71
			c0.19-0.43,0.38-0.86,0.65-1.46c-3.32-0.79-6.45-1.54-9.69-2.32c-0.5,1.13-0.99,2.24-1.49,3.35c-2.48-2.95-5.65-5.45-9.46-7.22
			c-4.33-2.03-8.8-3.79-13.4-5.28c-16.45-5.32-33.45-7.99-50.98-7.99c-15.35,0-30.39,2.04-45.1,6.11
			c-14.73,4.07-27.8,10.26-39.23,18.56c-11.44,8.31-20.68,18.72-27.72,31.25c-7.05,12.53-10.57,27.42-10.57,44.64
			c0,19.74,3.91,35.48,11.75,47.23c7.83,11.75,17.54,21.14,29.13,28.19c11.58,7.05,24.27,12.61,38.06,16.68
			c13.78,4.07,26.46,8.38,38.06,12.92c11.58,4.54,21.3,10.1,29.13,16.68c7.83,6.58,11.75,15.97,11.75,28.19
			c0,7.52-1.73,14.18-5.17,19.97c-3.46,5.8-7.99,10.57-13.63,14.33c-5.64,3.76-11.91,6.58-18.8,8.46
			c-6.89,1.88-13.79,2.81-20.67,2.81c-13.16,0-25.61-3.05-37.35-9.16c-4.29-2.23-8.27-4.78-11.96-7.66
			c-7.83-6.12-17.99-7.47-26.85-4.32c0.58-1.32,1.17-2.63,1.8-3.92c0.59-1.23,0.51-1.89-0.71-2.64c-2.13-1.29-4.13-2.78-6.32-4.27
			c-1.88,4.23-3.68,8.28-5.51,12.39c-2.59-1.15-5.05-2.25-7.69-3.42c2.04-4.6,4.06-9.13,6.07-13.66
			c-9.5-4.22-18.83-8.37-28.19-12.53c-2.91,6.54-5.78,13-8.72,19.61c3.41,1.52,6.74,3,10.09,4.48c-2.68,6.04-5.31,11.93-7.99,17.97
			c-3.42-1.52-6.75-3-10.07-4.48c-2.94,6.6-5.81,13.07-8.69,19.54c9.43,4.19,18.76,8.34,28.2,12.54c0.32-0.72,0.6-1.35,0.88-1.99
			c1.57-3.55,3.17-7.08,4.7-10.64c0.35-0.81,0.68-1.08,1.56-0.65c1.86,0.9,3.75,1.72,5.65,2.51c0.82,0.34,0.9,0.73,0.54,1.51
			c-1.53,3.34-3,6.71-4.49,10.06c-0.18,0.4-0.36,0.81-0.61,1.37c3.12,0.75,6.06,1.45,9.1,2.18c0.65-1.47,1.3-2.92,1.94-4.36
			c2.02,4.13,5.12,7.81,9.28,10.58c7.54,5.02,15.62,9.09,24.25,12.2c19.1,6.88,39,10.34,59.67,10.34c16.28,0,31.79-2.2,46.51-6.58
			c14.72-4.38,27.64-10.96,38.77-19.73c11.12-8.77,19.97-19.81,26.55-33.13c6.58-13.31,9.87-28.89,9.87-46.75
			c0-19.73-3.92-35.54-11.75-47.46C381.68,711.68,371.97,702.13,360.38,694.91z"/>
		<path d="M985.28,687.3h-19.66l-132.7,0.61c-14.73,0.07-26.65,12.04-26.65,26.78v137.53c0,14.79,11.99,26.78,26.78,26.78h5.64
			c14.79,0,26.78-11.99,26.78-26.78v-84.58c0-14.79,11.99-26.78,26.78-26.78h93.03c14.79,0,26.78-11.99,26.78-26.78
			C1012.06,699.29,1000.07,687.3,985.28,687.3z"/>
		<path d="M985.69,546.34H833.06c-14.79,0-26.78,11.99-26.78,26.78c-0.01,14.79,11.99,26.78,26.78,26.78h152.63
			c14.79,0,26.78-11.99,26.78-26.78S1000.48,546.34,985.69,546.34z"/>
		<path d="M1090.07,542.93c-16.35,0-29.6,13.25-29.6,29.6v273.46c0,16.35,13.26,29.6,29.6,29.6c16.35,0,29.6-13.26,29.6-29.6V572.53
			C1119.67,556.18,1106.42,542.93,1090.07,542.93z"/>
		<path d="M1404.17,536.11h-209.56c-14.79,0-26.78,11.99-26.78,26.78s11.99,26.78,26.78,26.78H1243c14.8,0,26.79,11.99,26.8,26.78
			v225.54c0,14.79,11.99,26.78,26.78,26.78h5.64c14.79,0,26.78-11.99,26.78-26.78V616.45c0-14.79,11.99-26.78,26.78-26.78h48.39
			c14.79,0,26.78-11.99,26.78-26.78S1418.96,536.11,1404.17,536.11z"/>
		<path d="M1709.31,539.69c-10.1,0-19.48,5.21-24.83,13.78l-49.13,78.72c-11.5,18.42-38.34,18.35-49.74-0.13l-48.41-78.46
			c-5.33-8.64-14.76-13.9-24.91-13.9h-3.66c-23.29,0-37.25,25.87-24.46,45.34l90.4,137.64c3.14,4.77,4.81,10.36,4.8,16.07v104.35
			c0,16.16,13.11,29.27,29.27,29.27h0.66c16.17,0,29.27-13.1,29.27-29.27V738.74c0-5.71,1.67-11.3,4.8-16.07l90.4-137.64
			C1746.57,565.57,1732.6,539.69,1709.31,539.69z"/>
		<path d="M904.58,348.31c8.91-1.12,15.12-6.34,20.93-12.45c14.59-15.36,30.03-29.8,47.91-41.26
			c24.28-15.56,50.58-26.42,79.04-31.56c35.75-6.46,71.06-4.68,105.89,6.12c28.52,8.84,54.14,22.9,76.82,42.18
			c8.86,7.53,16.76,16.19,25.45,23.93c11.61,10.34,29.36,9.43,39.94-1.64c10.98-11.49,11.25-29,0.18-40.29
			c-8.56-8.73-17.3-17.33-26.51-25.35c-23.83-20.74-50.59-36.66-80.12-48.08c-32.48-12.57-66.04-18.84-107.38-18.89
			c-20.02-0.18-46.05,3.68-71.55,11.05c-28.93,8.36-55.79,21.18-80.49,38.4c-21,14.64-39.79,31.85-56.76,50.98
			c-8.34,9.4-8.76,21.65-2.15,33.36C881.12,344.24,893.28,349.73,904.58,348.31z"/>
		<path d="M1224.66,411.73c10.09-12.64,10.58-28.7,0.55-40.55c-16.93-20.02-36.87-36.49-60.63-47.78
			c-21.01-9.99-43.23-15.69-66.68-16.79c-9.72,0.73-19.51,0.93-29.14,2.29c-22.02,3.09-42.57,10.47-61.73,21.94
			c-11.84,7.09-22.5,15.58-32.35,25.1c-7.33,7.08-14.79,14.18-21.01,22.19c-9.12,11.75-7.53,28.65,2.6,39.87
			c9.35,10.36,25.85,13.75,37.94,6.32c7.3-4.48,13.61-10.83,19.65-17.05c15.02-15.45,31.93-27.55,53.24-32.64
			c38.35-9.17,71.31,0.68,99.62,27.75c6.37,6.1,12.81,12.59,20.36,16.89C1199.7,426.46,1216.09,422.47,1224.66,411.73z"/>
		<path d="M1089.11,428.19c-31.2,1.04-50.95,26.07-49.88,52.64c1.21,30.13,25.97,50.11,52.46,49.13
			c30.04-1.1,49.99-25.99,49.24-51.93C1140.05,447.19,1114.8,427.33,1089.11,428.19z"/>
		<path d="M430.41,622.07c0.67-1.5,1.26-2.84,1.91-4.29c4.5,2,8.9,3.96,13.33,5.93c0.57-1.29,1.1-2.46,1.69-3.8
			c-4.51-2.01-8.94-3.98-13.35-5.94c0.65-1.47,1.23-2.77,1.88-4.23c4.51,2.01,8.94,3.97,13.37,5.94c0.58-1.3,1.09-2.45,1.67-3.76
			c-4.5-2-8.93-3.97-13.36-5.94c0.67-1.5,1.26-2.84,1.92-4.31c4.52,2.01,8.96,3.98,13.35,5.94c0.57-1.28,1.08-2.42,1.66-3.73
			c-4.51-2-8.93-3.97-13.33-5.93c0.67-1.51,1.26-2.84,1.91-4.29c4.51,2.01,8.91,3.96,13.35,5.94c0.56-1.27,1.07-2.41,1.65-3.72
			c-4.48-1.99-8.91-3.96-13.37-5.94c0.66-1.49,1.26-2.83,1.9-4.27c4.5,2,8.9,3.96,13.35,5.94c0.72-1.62,1.39-3.12,2.07-4.65
			c-10.91-4.85-21.75-9.67-32.59-14.49c-1.99,4.47-3.93,8.83-5.9,13.26c0.91,0.46,1.75,0.88,2.6,1.31c-0.28,0.62-0.5,1.13-0.79,1.78
			c-5.42-2.41-10.77-4.79-16.19-7.2c-2.3,5.18-4.55,10.23-6.88,15.48c5.43,2.41,10.75,4.78,16.11,7.16
			c-0.28,0.63-0.5,1.13-0.77,1.73c-0.9-0.35-1.74-0.67-2.61-1.01c-1.99,4.47-3.94,8.86-5.91,13.29c10.9,4.85,21.71,9.65,32.57,14.48
			c0.7-1.58,1.37-3.08,2.11-4.74C439.26,626,434.83,624.03,430.41,622.07z"/>
		<path d="M443.32,633.48c1.4,0.62,2.74,1.22,4.1,1.82c6.8-15.3,13.57-30.52,20.37-45.82c-1.38-0.61-2.68-1.19-4.1-1.82
			C456.87,603,450.11,618.22,443.32,633.48z"/>
		<path d="M140.46,808.76c0.26-0.58,0.47-1.06,0.74-1.67c5.09,2.26,10.12,4.5,15.21,6.76c2.17-4.87,4.27-9.61,6.47-14.54
			c-5.1-2.27-10.1-4.49-15.13-6.73c0.26-0.59,0.47-1.07,0.72-1.62c0.85,0.33,1.63,0.63,2.46,0.95c1.87-4.2,3.7-8.32,5.55-12.49
			c-10.24-4.55-20.4-9.07-30.6-13.6c-0.66,1.48-1.29,2.89-1.98,4.46c4.23,1.88,8.39,3.73,12.54,5.57c-0.63,1.41-1.19,2.67-1.79,4.03
			c-4.23-1.88-8.36-3.72-12.53-5.57c-0.54,1.21-1.03,2.32-1.59,3.57c4.24,1.89,8.4,3.74,12.54,5.58c-0.61,1.38-1.16,2.6-1.77,3.97
			c-4.24-1.89-8.4-3.73-12.56-5.58c-0.54,1.22-1.02,2.3-1.57,3.53c4.23,1.88,8.39,3.73,12.55,5.58c-0.63,1.41-1.19,2.67-1.8,4.05
			c-4.25-1.89-8.41-3.74-12.54-5.58c-0.53,1.2-1.01,2.27-1.56,3.51c4.24,1.88,8.39,3.73,12.52,5.57c-0.63,1.42-1.19,2.67-1.79,4.03
			c-4.24-1.88-8.37-3.72-12.54-5.58c-0.53,1.19-1.01,2.27-1.55,3.49c4.21,1.87,8.37,3.72,12.56,5.58c-0.62,1.4-1.18,2.66-1.78,4.01
			c-4.23-1.88-8.36-3.72-12.55-5.58c-0.67,1.52-1.3,2.93-1.94,4.37c10.25,4.56,20.43,9.09,30.61,13.61c1.87-4.2,3.69-8.3,5.54-12.46
			C142.05,809.56,141.26,809.16,140.46,808.76z"/>
		<path d="M120.45,763.42c-6.39,14.38-12.75,28.68-19.14,43.04c1.29,0.57,2.52,1.12,3.85,1.71c6.41-14.41,12.76-28.71,19.14-43.04
			C122.99,764.55,121.73,763.99,120.45,763.42z"/>
	</g>
	<g>
		<path d="M713.67,734.48c-1.13,17.11-2.25,34.22-3.38,51.33c-0.06,0.91,0.08,1.93-0.28,2.72c-0.48,1.05-1.36,1.92-2.07,2.86
			c-0.75-0.93-2.04-1.79-2.16-2.8c-0.75-6.38-1.25-12.79-1.83-19.2c-1.05-11.5-2.09-23-3.15-34.51c-0.06-0.63-0.27-1.24-0.41-1.85
			c-0.3-0.04-0.59-0.07-0.89-0.11c-0.52,1.15-1.29,2.25-1.53,3.46c-0.89,4.59-3.52,6.13-8.14,5.75c-4.96-0.41-9.97-0.18-14.96-0.12
			c-2.38,0.03-3.61-1.03-4.12-3.31c-0.66-2.98-1.48-5.93-2.23-8.89c-0.34,0.03-0.68,0.06-1.02,0.09c-0.26,2.53-0.59,5.06-0.75,7.59
			c-0.7,11-1.35,22.01-2.03,33.01c-0.04,0.65,0.09,1.42-0.21,1.94c-0.74,1.3-1.68,2.5-2.54,3.74c-0.85-1.14-2.25-2.18-2.46-3.43
			c-1.64-9.57-3.04-19.18-4.52-28.78c-0.2-1.28-0.48-2.55-0.55-2.96c-6.89,0.14-13.43,0.29-19.96,0.4
			c-2.76,0.04-5.53,0.15-8.26-0.09c-1.13-0.1-2.8-0.79-3.12-1.63c-0.31-0.83,0.5-2.44,1.28-3.27c5.21-5.55,10.78-10.77,15.77-16.5
			c5.57-6.39,10.45-13.36,9.98-22.45c-0.55-10.61-5.59-18.47-15.35-22.88c-9.76-4.42-18.42-2.37-25.89,5.16
			c-0.92,0.93-1.73,2.27-2.85,2.64c-1.37,0.46-3.1,0.39-4.51,0c-1.02-0.28-1.77-1.49-2.67-2.27c-9.95-8.57-20.47-9.04-30.46-1.37
			c-9.44,7.25-13.1,20.85-7.19,31.08c3.68,6.36,9.03,11.82,13.96,17.38c2.94,3.32,6.63,5.96,9.79,9.1c0.87,0.86,1.72,2.68,1.36,3.59
			c-0.35,0.9-2.22,1.68-3.43,1.7c-8.92,0.13-17.86-0.11-26.78,0.12c-3.91,0.1-6.3-0.97-6.91-5.06c-0.17-1.11-0.8-2.15-1.68-4.41
			c-0.69,2.29-1.17,3.52-1.42,4.79c-0.94,4.76-1.66,9.58-2.77,14.3c-0.54,2.29,0.23,6.11-3.69,5.83c-3.5-0.25-2.64-3.74-2.91-6
			c-1.55-12.9-2.94-25.82-4.41-38.73c-0.14-1.23-0.41-2.45-1.44-3.7c-0.22,1.2-0.49,2.4-0.64,3.61c-1.02,8.34-2.09,16.67-2.98,25.02
			c-0.35,3.31-1.65,4.9-5.23,4.81c-7.08-0.2-14.18-0.25-21.26,0.01c-4,0.15-5.65-1.56-6.33-5.26c-0.19-1.06-0.41-2.11-0.65-3.16
			l-23,53.38c-0.21,1.57-0.43,3.22-1.7,3.94l-17.15,39.82c-8.37,19.44,5.88,41.09,27.04,41.09h16.8c4.04,0,8.03-0.83,11.72-2.44
			l112.95-49.05c31-13.46,67,1.43,79.41,32.87c4.44,11.24,15.3,18.63,27.38,18.63h1.31c21.21,0,35.45-21.74,27-41.19L713.67,734.48z
			"/>
		<path d="M497.62,734.36c0.64,3.28,2.14,4.28,5.34,4.15c5.5-0.23,11.03-0.21,16.54-0.02c3.03,0.11,4.09-1.05,4.42-3.99
			c1.66-14.73,3.45-29.46,5.35-44.16c0.22-1.7,1.42-3.27,2.17-4.9c0.72,1.66,1.89,3.26,2.1,4.98c1.92,16.29,3.67,32.6,5.49,48.9
			c0.19,1.67,0.55,3.32,1.51,5.12c0.31-0.86,0.74-1.69,0.91-2.58c1.16-5.93,2.19-11.88,3.44-17.78c0.18-0.83,0.81-1.56,1.4-2.31
			c0.2-0.25,0.39-0.5,0.55-0.75l0,0v0c0.3,0.34,0.65,0.65,0.99,0.98c0.57,0.54,1.1,1.08,1.33,1.74c1.29,3.72,2.21,7.56,3.49,11.28
			c0.37,1.09,1.44,2.74,2.23,2.76c8.2,0.2,16.41,0.12,25.88,0.12c-1.91-1.97-3-2.99-3.99-4.11c-6.06-6.86-13.16-13.07-17.92-20.74
			c-11.39-18.34,2.28-42.42,23.87-43.28c7.02-0.28,12.78,2.62,17.85,7.03c2.27,1.98,3.66,2.35,6.14,0.04
			c11.02-10.25,23.96-10.88,35.74-2.08c10.77,8.04,14.43,23.44,8.45,35.79c-4.31,8.91-11.27,15.73-18.05,22.69
			c-1.07,1.1-2.12,2.21-3.93,4.12c2.62,0.18,4.21,0.36,5.81,0.39c2.76,0.05,5.51,0.02,8.27,0.01c8.24-0.02,6.61,0.55,9.12-6.21
			c0.47-1.25,1.87-2.15,2.85-3.21c0.63,1.2,1.62,2.33,1.84,3.6c1.07,6.21,1.93,12.45,2.89,18.67c0.31,2.03,0.69,4.05,1.03,6.07
			c0.33,0,0.66-0.01,1-0.01c0.33-3.91,0.71-7.82,0.97-11.74c0.62-9.56,1.17-19.13,1.76-28.69c0.02-0.39-0.05-0.85,0.12-1.17
			c0.61-1.14,1.3-2.24,1.96-3.36c0.73,0.96,1.82,1.82,2.12,2.89c1.49,5.44,2.72,10.95,4.13,16.42c2.11,8.23,0.22,7.28,9.41,7.32
			c11.13,0.05,11.13,0.01,14.97-10.33c0.64-1.72,1.13-3.52,1.96-5.14c0.53-1.04,1.57-1.81,2.39-2.7c0.67,1.12,1.8,2.19,1.94,3.38
			c0.69,5.86,1.09,11.76,1.64,17.64c0.62,6.66,1.29,13.32,1.96,19.98c0.04,0.35,0.32,0.68,0.99,2.01c0.41-5.4,0.79-9.83,1.08-14.28
			c0.47-7.23,0.92-14.47,1.39-21.7l-74.03-170.16c-4.68-10.75-15.28-17.7-27-17.7h-12.54c-11.76,0-22.39,6.99-27.04,17.79
			l-73.62,170.9C496.75,730.14,497.21,732.24,497.62,734.36z"/>
	</g>
</g>
</svg>
